<svg id="Слой_1" data-name="Слой 1" xmlns="http://www.w3.org/2000/svg" viewBox="0 0 2048 1200"><defs><style>.cls-1{fill:#bbd8fc;}.cls-2{fill:#64a3ed;}.cls-3{fill:#93c6f9;}.cls-4{fill:#2a2e38;}.cls-5{fill:#6b7387;}.cls-6{fill:#3b3f4c;}.cls-7{fill:#b2d9f9;}.cls-8{fill:#7aaef8;}.cls-9{fill:#4795e2;}.cls-10{fill:#3a93dd;}.cls-11{fill:#72b5ed;}.cls-12{fill:#7fbbf7;}.cls-13{fill:#368ce0;}.cls-14{fill:#65a4ef;}.cls-15{fill:#465877;}.cls-16{fill:#fff;opacity:0.75;}.cls-17{fill:#2386c9;}.cls-18{fill:#e6f1fc;}.cls-19{fill:#cde2fc;}</style></defs><g id="wave_bg" data-name="wave bg"><path class="cls-1" d="M2050.11,736.8c-27.23-79.93-168.39-157.41-299.08-92.48-69.1,34.33-392.07,242.27-593.55,209.8s-441.09-7.49-566.33,157.34S1.49,975.86,1.49,975.86v223.31H2048.42Z"/><path class="cls-2" d="M1746.53,673.57c-69.1,34.33-392.07,242.27-593.55,209.8s-441.09-7.49-566.33,157.34C468.63,1196.05,49.45,1027,1.49,1007v192.16H2044l1.58-433.12C2018.38,686.12,1877.22,608.64,1746.53,673.57Z"/><path class="cls-3" d="M615.73,1184c-82.21,58.64-189-138.29-288-163s-171-6-326.24,122.5v55.69H2048.42L2045,908.92S1135.48,813.25,615.73,1184Z"/></g><path class="cls-4" d="M517.4,486.76c-56.25,55.57-83.12,323.83,153.15,420.84s554.69,81.55,554.69,81.55Z"/><path class="cls-5" d="M507.2,503.17C554.58,385.45,958,574.52,1323.26,706c334.78,120.47,542.49,276.81,442.66,313.52s-507.64-2-779-36.69C744.49,951.81,406.93,752.34,507.2,503.17Z"/><path class="cls-6" d="M1299.25,714.21C1026.62,585,658,453.64,528.14,480.67c-10.19,5.45-17.31,12.88-20.94,22.5C412.53,754.53,744.49,951.81,987,982.79c258.88,33.08,642,69.86,763.31,41.28C1828,983.28,1610.83,861.85,1299.25,714.21Z"/><path class="cls-5" d="M1203.09,401.61l-2.77-1.28a7.88,7.88,0,0,0-10.39,3.48l-17.48,35.31a7.23,7.23,0,0,0,.42,7.14l-36.81,74.4,10.85,5L1183.85,451a7.65,7.65,0,0,0,5.48-4.08l17.47-35.31A7.41,7.41,0,0,0,1203.09,401.61Z"/><path class="cls-5" d="M1234.73,597.72h0a5.38,5.38,0,0,1-2.7-7.26L1327,398.64a5.72,5.72,0,0,1,7.53-2.52h0a5.38,5.38,0,0,1,2.69,7.26L1242.26,595.2A5.72,5.72,0,0,1,1234.73,597.72Z"/><path class="cls-5" d="M1303.67,334.63h0a5.71,5.71,0,0,0-7.53,2.52l-51.6,104.27a12.87,12.87,0,0,0-15.4,6.32L1211.69,483a10.35,10.35,0,0,0-7.91,5.59L1175.4,546l31.42,29.36,35.54-68.86a9.74,9.74,0,0,0-.46-9.47l17.45-35.26a12.07,12.07,0,0,0-4.58-15.57l51.59-104.26A5.38,5.38,0,0,0,1303.67,334.63Z"/><path class="cls-6" d="M1163.23,492.69,1183.85,451a7.65,7.65,0,0,0,5.48-4.08l17.47-35.31a7.41,7.41,0,0,0-3.71-10l-.34-.15C1184.76,418.1,1167.76,464,1163.23,492.69Z"/><path class="cls-6" d="M1241.9,497l17.45-35.26a12.07,12.07,0,0,0-4.58-15.57l46.69-94.35c-22,16-84.74,152.76-73.49,182.52l14.39-27.87A9.74,9.74,0,0,0,1241.9,497Z"/><path class="cls-6" d="M1271.71,535.67l59.17-119.57C1312.5,424,1283,495.58,1271.71,535.67Z"/><path class="cls-5" d="M974.43,581c31.65-131.52,97.91-111.06,127.77-99.12s259.25,144.37,278.56,164.62c28.3,29.68,33.83,110.33,33.68,118.21S974.43,581,974.43,581Z"/><path class="cls-6" d="M1376.09,661.52c-17.16-22.6-252.4-151-282.3-163.24-23.33-9.54-68.84-24.41-102.62,33.17-6.17,13.81-19.93,45.6-18.62,63,0,0,442.4,184.2,442.53,176.17,0-1.46-.14-5.41-.61-11.06C1407,728.86,1393.39,684.32,1376.09,661.52Z"/><path class="cls-6" d="M1413.08,740.32l-18.25,76.81,321.3,212.6c20.68-2.38,37.55-5.75,49.79-10.25C1856.48,986.18,1694,854.43,1413.08,740.32Z"/><path class="cls-7" d="M514.19,868.86c-68.67-63.25-69.4-142.75-19.73-146.71,67.17-5.35,49.49,76.62,3.81,62.7s-21.72-46.64,8.34-32S466.11,778,606.4,858.93Z"/><path class="cls-8" d="M530.71,869.91C462,806.66,461.31,727.16,511,723.2c67.17-5.35,49.49,76.62,3.81,62.7s-21.72-46.64,8.34-32S482.63,779,622.92,860Z"/><path class="cls-4" d="M1525.2,826c-126.25-19-259.94,1.07-385.24,46.26C928.34,948.63,577.33,652.15,522.05,484.44c-7,5-11.45,11.39-14.85,18.73C391.4,753.51,744.49,951.81,987,982.79c255.21,32.61,631.16,68.82,758,42.45a183.5,183.5,0,0,0,20.85-19C1772.26,969.91,1676.62,905.65,1525.2,826Z"/><path class="cls-1" d="M886.52,927.1C925.75,952.18,1004,861.23,1048.1,864s48,41.55,33.89,59.37c-22.6,28.53-98.27-17.73-41.6-23.27,28.23-2.77-15.39-7-29.6,40.53-14.28,47.72,132.6,42.1,144.5-39,18.16-123.68,142.21-164.24,184.34-91.83,44.26,76.08-101.13,106.63-93,41.88s69.5-.73,38.65,8.81c-40.13,12.41-44,52.29,12.63,66.69s135.36-173,237.25-180.83c101.3-7.79,131.88,49.12,130.13,88.15-1.86,41.2-54,70.71-96.35,29.27s-9.41-80.34,3.6-51.14c8.23,18.46-35.72,186.36-310.39,185.88C1052.52,998.13,886.52,927.1,886.52,927.1Z"/><path class="cls-9" d="M647.39,865.82C609.84,845.37,492,647,584.87,558.86c65.43-62.09,67.3,32.32,42.44,29.34S642,497.13,753.85,541.6s129.91,166.88,45.8,188.18S617.13,621.33,694.88,586.58,631,727.17,740.5,837C840.66,937.31,945.72,937.3,945.72,937.3s-212.49-12.9-270.48-50Z"/><path class="cls-10" d="M698.9,693.23l.27.77v-.13c26.3,26.69,64.68,45,100.47,35.91,84.11-21.3,66-143.7-45.8-188.18-56.74-22.57-94.87-11-115.43,6.27-6.77-13-23.41-17.61-53.55,11-92.9,88.17,25,286.51,62.52,307l23.3,18C598.06,755.46,639.89,656.4,698.9,693.23Z"/><path class="cls-11" d="M636.59,548l.22-2.83c-7.62-10.82-24-12.89-51.94,13.65-92.9,88.17,25,286.51,62.52,307l27.85,21.49C620.77,818.76,495.72,626.86,636.59,548Z"/><path class="cls-2" d="M570.52,750.33c61.91,17.87,86.34-101.13-4.36-98.25-111.54,3.54-36.19,174.4-5.84,219.17L676,888C599.1,834.64,575.22,786.05,570.52,750.33Z"/><path class="cls-1" d="M622.91,880.31a96.8,96.8,0,0,0-10.33-11.74c-86.37-84.9-87.31-164.57-54.84-178.25s51,55.89,12.78,60c61.91,17.87,86.78-106.55-3.91-103.68-111.54,3.54-36.64,179.83-6.29,224.6Z"/><path class="cls-12" d="M561.72,871.46l61.19,8.85a96.8,96.8,0,0,0-10.33-11.74c-86.37-84.9-87.31-164.57-54.84-178.25s51,55.89,12.78,60c27.25,7.86,47.23-10.79,53.33-33.89-2.72-36.34-22.47-58.13-52.59-58.13C468.58,658.34,529.23,813.88,561.72,871.46Z"/><path class="cls-13" d="M1568.93,863.76c42.4,41.44,94.49,11.93,96.35-29.27,0-1.24.08-2.5.06-3.78-6.92-36.48-41.73-77.63-128.85-70.94-101.9,7.83-179.78,191-236.42,176.62-32.87-8.37-38.75-23-43-36.26a22.89,22.89,0,0,1,1.13-20.12c26.33,17.87,87.45,0,89.79-40.1a64.3,64.3,0,0,0-7-16.69c-42.12-72.41-158.58-21.76-179.29,91.34-7,38.28-50.07,64.9-85.1,65,50.79,8.65,123.71,24.43,185,24.53,196.67.35,275.59-91.24,301.23-146.88C1564.66,859.38,1566.68,861.57,1568.93,863.76Z"/><path class="cls-13" d="M1049.43,877.4c-33.11-2-85.4,48.62-126,63.48,21.3,10.79,80.74,26.46,117.84,33.15-1.19-3.42-21.64-7.26-29.53-18.46a20,20,0,0,1-.93-15,70.24,70.24,0,0,1,11.77-23.38c10.14,12.46,45.24,24,59.43,6.12a35.59,35.59,0,0,0,7.17-19.11C1085.24,890.77,1073.16,878.87,1049.43,877.4Zm-1.07,35.24c3.21-1,3.9-.67,0,0ZM1047,899.21c3.21-1,3.9-.68,0,0Z"/><path class="cls-9" d="M808.73,683.22c14.93-9.25,116.78,4.48,100,80.6-22.8,103.41-134.78,24.88-94.48-2.06s57.67-14.14,33.21,50.11c-21.93,57.63,124,163.62,180.21,147.21,0,0-182.32,9.39-275.08-58.8S636.2,740.43,673.39,684.61s119.28-41.11,119.14,30.5-27.11,21.76-20.48,1.27S808.73,683.22,808.73,683.22Z"/><path class="cls-1" d="M637.88,546.9,636.59,548l1.63-.52C638.11,547.31,638,547.1,637.88,546.9Z"/><path class="cls-1" d="M847,690.65c18.61-46-13.45-117.34-93.16-149-56-22.26-93.82-11.29-114.58,5.58C707.65,526.14,829,560.89,847,690.65Z"/><path class="cls-1" d="M965.39,948l-1.42-.65c-317.22-27.26-229-289.4-174-253.12l-1-3.29c-16.14-50-83.05-55.15-115.58-6.32-37.19,55.82-13.57,147.48,79.2,215.67,60.36,44.38,158.65,55.9,219.94,58.53Z"/><path class="cls-14" d="M846.63,814.38a56.82,56.82,0,0,0,7.09,1.12c-12.08-55.1,22.32-96.74,46.67-103.15C885.77,688.66,831.54,657.92,790,694.2a11.34,11.34,0,0,0-1.62,1.79c-37.19,55.82-13.57,147.48,79.2,215.67,33.63,24.73,79,39.25,123.26,47.72,3.61.07,7,.11,10.16.13C936.57,948.21,832,864.63,846.63,814.38Z"/><path class="cls-14" d="M1027.67,959.08s-10.09.52-26.72.43C1011.05,961.28,1020.16,961.27,1027.67,959.08Z"/><path class="cls-9" d="M846.63,814.38c24.18,5.44,52-4.56,62.1-50.56,9.06-41.12-16.49-64-44.26-75C798.84,741.3,846.32,815.44,846.63,814.38Z"/><path class="cls-14" d="M910.48,750.94c2.26-42.93-29.26-60.84-52.73-66.81-78.79,30.18-33.88,113.6-11.12,130.25C803,727.56,896.24,691.3,910.48,750.94Z"/><path class="cls-8" d="M965.43,948q-11.14-1.2-21.59-2.81c-290.27-36.06-209.36-281.41-155.54-252,.43-.1.85-.18,1.28-.26l-.61-2c-6.7-20.75-22.13-33.76-40.23-38.41-22.15-.56-45.86,10.43-61.57,34C650,742.34,673.6,834,766.37,902.19c39.4,29,95,43.93,145.85,51.57,22,2.8,42.68,4.29,60.31,5Z"/><path class="cls-7" d="M420,727.66c5.26,15.49,15.93,28.25,15.93,28.25s-27.77-4.82-36.23-30.86c-5.05-15.56,2-24.21,8.63-24.72C415.85,699.75,414.72,712.17,420,727.66Z"/><path class="cls-8" d="M420,727.66c-2.94-8.63-3.89-16.3-5.45-21.31-6.31,1.21-12.51,9.76-7.7,24.58a42.44,42.44,0,0,0,10.36,17,54,54,0,0,0,18.72,8S425.25,743.15,420,727.66Z"/><path class="cls-7" d="M447.22,680.8c-4.72,11-4.94,23.2-4.94,23.2s-13.69-16.63-5.52-34.85c4.88-10.9,13.33-12,17.41-8.89C458.83,663.76,451.94,669.84,447.22,680.8Z"/><path class="cls-8" d="M447.22,680.8c2.63-6.1,5.93-10.7,7.54-14.17-4.27-2.54-12.16-1.1-16.81,9.28a29.51,29.51,0,0,0-2.51,14.34A41.1,41.1,0,0,0,442.28,704S442.5,691.77,447.22,680.8Z"/><path class="cls-7" d="M916.46,854.56c-1.63,16.28,2.79,32.32,2.79,32.32S896,871,899.07,843.78c1.85-16.26,11.87-21.2,18.1-18.92C924.26,827.45,918.08,838.28,916.46,854.56Z"/><path class="cls-8" d="M916.46,854.56c.9-9.07,3.22-16.44,3.87-21.65-6.25-1.51-15.43,3.7-17.2,19.19a42.42,42.42,0,0,0,2.4,19.75,53.81,53.81,0,0,0,13.72,15S914.83,870.84,916.46,854.56Z"/><path class="cls-7" d="M957.5,824.16c-9.17,7.65-14.56,18.85-14.56,18.85s-6-22.58,9.51-35.14c9.29-7.5,17.8-4,20.4,1C975.82,814.51,966.66,816.51,957.5,824.16Z"/><path class="cls-8" d="M957.5,824.16c5.1-4.26,10.2-6.77,13.21-9.13-3-4.6-11.15-7.42-20-.27a27.27,27.27,0,0,0-8.49,11.93,45.12,45.12,0,0,0,.71,16.32S948.33,831.81,957.5,824.16Z"/><circle class="cls-15" cx="1075.68" cy="583.29" r="51.53"/><circle class="cls-8" cx="1075.68" cy="583.29" r="39.67"/><path class="cls-16" d="M1065.13,621.51a39.46,39.46,0,0,0,22.68-.49l-26.38-74.71a39.45,39.45,0,0,0-18,13.86Z"/><path class="cls-16" d="M1091.71,619.54a39.49,39.49,0,0,0,9.8-6.18l-24.61-69.69a39.55,39.55,0,0,0-11.51,1.34Z"/><circle class="cls-15" cx="1186.97" cy="636.83" r="52.32"/><circle class="cls-8" cx="1186.97" cy="636.83" r="40.28"/><path class="cls-16" d="M1176.25,675.64a40.05,40.05,0,0,0,23-.5l-26.79-75.86a40.07,40.07,0,0,0-18.23,14.07Z"/><path class="cls-16" d="M1203.24,673.64a40.3,40.3,0,0,0,10-6.28l-25-70.77a40,40,0,0,0-11.69,1.37Z"/><circle class="cls-15" cx="1296.35" cy="695.02" r="54.01"/><circle class="cls-8" cx="1296.35" cy="695.02" r="41.58"/><path class="cls-16" d="M1285.29,735.09a41.39,41.39,0,0,0,23.77-.52l-27.65-78.3a41.28,41.28,0,0,0-18.82,14.52Z"/><path class="cls-16" d="M1313.15,733a41.15,41.15,0,0,0,10.28-6.48l-25.8-73a41.24,41.24,0,0,0-12.06,1.42Z"/><path class="cls-17" d="M1434.6,899.51c-29.3-91-179.7-4-218,33.59l32.32,126.31c34.4-77.31,55.08-110.32,80.43-126.86C1335,989.92,1459.2,975.93,1434.6,899.51Z"/><path class="cls-13" d="M1242.15,1043.66c58.66-131.81,105.21-146.41,136.09-142.3s-23.75-43.73-23.75-43.73c-86.42,106.5,104.55,123,73.36,26.13-29.3-91-179.7-4-218,33.59Z"/><g id="wave"><path class="cls-9" d="M-2.26,806.85c26-76.19,278.79-109.13,403.74-47.22,66.06,32.73,374.86,231,567.49,200s503.52,19,623.26,176.13,452.25-60.06,452.25-60.06l1.69,132.46L-.76,1202.27Z"/><path class="cls-2" d="M1594.48,1161.62c-119.74-157.15-430.62-207.07-623.26-176.12s-501.43-167.27-567.49-200c-124.82-61.84-377.17-29-403.66,47l1.42,372,1660.16,4.79C1635.64,1200.62,1612.62,1185.42,1594.48,1161.62Z"/><path class="cls-2" d="M1799.56,1209.7l248.56.72-1.39-108.86S1923.17,1182.28,1799.56,1209.7Z"/><path class="cls-9" d="M1259.23,1095.13c84.71,55,348.75-49.44,447.75-74.15s185.35-1,340.6,127.56l.84,50.63H-.2L.36,874.05S663,708.11,1259.23,1095.13Z"/><path class="cls-8" d="M1259.23,1111c84.71,46.59,348.75-41.88,447.75-62.82s185.35-.81,340.6,108.09l.84,42.89H-.2L.36,923.7S663,783.1,1259.23,1111Z"/><path class="cls-13" d="M668,1199.17H2048.42l-1.69-224.44C1983.44,968.66,1172.84,879.33,668,1199.17Z"/><path class="cls-2" d="M668,1199.17H2048.42l-1.69-187.45C1983.44,1006.64,1172.84,932,668,1199.17Z"/></g><g id="sky"><path class="cls-6" d="M534.46,201.93a20.93,20.93,0,0,1,9.4-7.35,22.56,22.56,0,0,1,12.43-1.14,28.1,28.1,0,0,1,11.33,5.13A35.7,35.7,0,0,1,576,207.4a41.33,41.33,0,0,1,6.76,22.43,44.9,44.9,0,0,1-5.53,22,68.77,68.77,0,0,0,2-10.93l.18-2.73v-2.72a41.8,41.8,0,0,0-.41-5.38,41.07,41.07,0,0,0-7.71-19.34c-4.12-5.45-9.86-9.7-16.21-11a26.19,26.19,0,0,0-9.72-.28,40.25,40.25,0,0,0-10.13,3.26h0a.55.55,0,0,1-.74-.28A.54.54,0,0,1,534.46,201.93Z"/><path class="cls-6" d="M636.11,243a48.74,48.74,0,0,0-5.24-9,28.94,28.94,0,0,0-7-6.6,24.17,24.17,0,0,0-8.63-3.65,25.45,25.45,0,0,0-9.53,0,32.35,32.35,0,0,0-17.14,9.74,52,52,0,0,0-6.42,8.28,85.41,85.41,0,0,0-5,9.56l.51-2.69c.09-.45.17-.91.28-1.35l.37-1.32c.26-.88.47-1.78.78-2.65l1-2.6a44.34,44.34,0,0,1,5.46-9.8,33.59,33.59,0,0,1,18.88-13,29.2,29.2,0,0,1,12-.45,25.34,25.34,0,0,1,11.14,4.76,24.5,24.5,0,0,1,7.5,9.32,23.9,23.9,0,0,1,2.12,11.27.57.57,0,0,1-.6.52.58.58,0,0,1-.47-.32Z"/><path class="cls-6" d="M804.46,122.48a17.61,17.61,0,0,1,7.94-6.21,19,19,0,0,1,10.5-1,23.7,23.7,0,0,1,9.57,4.33,29.54,29.54,0,0,1,7,7.47,34.75,34.75,0,0,1,5.72,18.94,37.83,37.83,0,0,1-4.67,18.6,57.37,57.37,0,0,0,1.66-9.23l.15-2.31v-2.3a36.22,36.22,0,0,0-.34-4.54,34.92,34.92,0,0,0-6.5-16.34c-3.51-4.59-8.34-8.19-13.71-9.27a22.32,22.32,0,0,0-8.2-.24,33.92,33.92,0,0,0-8.56,2.76h0a.46.46,0,0,1-.62-.24A.47.47,0,0,1,804.46,122.48Z"/><path class="cls-6" d="M890.32,157.14a41.73,41.73,0,0,0-4.42-7.61A24.55,24.55,0,0,0,880,144a20.3,20.3,0,0,0-7.29-3.08,21.36,21.36,0,0,0-8.05,0,27.19,27.19,0,0,0-14.47,8.22,43.34,43.34,0,0,0-5.42,7,74.31,74.31,0,0,0-4.21,8.08,43.79,43.79,0,0,1,2.45-9,38.29,38.29,0,0,1,4.61-8.28,31.28,31.28,0,0,1,6.92-6.81,26.75,26.75,0,0,1,9-4.15,24.72,24.72,0,0,1,10.14-.38,21.47,21.47,0,0,1,9.41,4,20.78,20.78,0,0,1,6.33,7.87,20.23,20.23,0,0,1,1.79,9.52.47.47,0,0,1-.9.17Z"/><path class="cls-6" d="M1454,409.39a17.76,17.76,0,0,1,4.12-9.2,19.06,19.06,0,0,1,8.82-5.76,23.64,23.64,0,0,1,10.49-.65,29.46,29.46,0,0,1,9.71,3.3,34.82,34.82,0,0,1,13.93,14.05,38,38,0,0,1,4.58,18.63,59,59,0,0,0-2.86-8.94l-.95-2.1-1.08-2a36.23,36.23,0,0,0-2.43-3.85,34.93,34.93,0,0,0-13.39-11.4c-5.25-2.41-11.2-3.33-16.46-1.77a22.1,22.1,0,0,0-7.36,3.63,34,34,0,0,0-6.27,6.44h0a.49.49,0,0,1-.67.08A.51.51,0,0,1,1454,409.39Z"/><path class="cls-6" d="M1546.14,399.83a41.6,41.6,0,0,0-7.47-4.66,24.29,24.29,0,0,0-7.83-2.15,20.43,20.43,0,0,0-7.89.69,21.38,21.38,0,0,0-7.12,3.75,27.15,27.15,0,0,0-8.94,14.05,43.84,43.84,0,0,0-1.52,8.71,73,73,0,0,0,.07,9.11,43.22,43.22,0,0,1-2-9.07,37.13,37.13,0,0,1,.2-9.47,30.91,30.91,0,0,1,2.92-9.26,26.58,26.58,0,0,1,6-7.9,24.77,24.77,0,0,1,8.77-5.08,21.57,21.57,0,0,1,10.21-.85,20.65,20.65,0,0,1,9.27,4,20.13,20.13,0,0,1,6,7.57.46.46,0,0,1-.24.62.44.44,0,0,1-.47-.05Z"/><path class="cls-18" d="M402.47,295.05a52.39,52.39,0,0,0,.62-5.94,50.25,50.25,0,0,0-78.77-43.54,84.71,84.71,0,0,0-165.46-13.13,44.67,44.67,0,0,0-58.34,64.43,75.29,75.29,0,0,0,122.29,87.77,77.85,77.85,0,0,0,132.5-21.25,44.66,44.66,0,1,0,47.16-68.34Z"/><path class="cls-19" d="M99.17,294.78c.44.71.88,1.41,1.35,2.09a75.29,75.29,0,0,0,122.29,87.77,77.85,77.85,0,0,0,132.5-21.25,44.66,44.66,0,1,0,47.16-68.34,52.39,52.39,0,0,0,.62-5.94C245.74,226.44,143.47,243.3,99.17,294.78Z"/><path class="cls-18" d="M1342.39,188.73a43.57,43.57,0,0,0,1.55-4.81,42.52,42.52,0,0,0-57.62-49.79,71.67,71.67,0,0,0-134.68-39.76,37.79,37.79,0,0,0-59.55,43.16,63.7,63.7,0,0,0,85.92,94,65.88,65.88,0,0,0,113.41,5.54,37.79,37.79,0,1,0,51-48.35Z"/><path class="cls-19" d="M1091.34,135.56c.24.66.48,1.32.75,2a63.7,63.7,0,0,0,85.92,94,65.88,65.88,0,0,0,113.41,5.54,37.79,37.79,0,1,0,51-48.35,43.57,43.57,0,0,0,1.55-4.81C1224.61,104.57,1137,100.68,1091.34,135.56Z"/><path class="cls-18" d="M1947.36,357.61a41.2,41.2,0,0,0,.78-4.64,39.57,39.57,0,0,0-59.73-38.12,66.69,66.69,0,0,0-129.34-18.54A35.16,35.16,0,0,0,1710,344a59.27,59.27,0,0,0,91.71,75A61.3,61.3,0,0,0,1906.91,409a35.16,35.16,0,1,0,40.45-51.35Z"/><path class="cls-19" d="M1709.07,342.32c.31.58.62,1.16,1,1.72a59.27,59.27,0,0,0,91.71,75A61.3,61.3,0,0,0,1906.91,409a35.16,35.16,0,1,0,40.45-51.35,41.2,41.2,0,0,0,.78-4.64C1827.63,295.91,1746.43,304.08,1709.07,342.32Z"/></g></svg>